<svg xmlns="http://www.w3.org/2000/svg" width="1024" height="1024"><path d="M0 512.001v512.001l512.25-.251 512.25-.251.251-511.75.251-511.75H0v512.001m.496.499c0 281.6.114 396.651.254 255.668.14-140.982.14-371.382 0-512C.61 115.551.496 230.9.496 512.5M276 208.658c-21.064 3.374-37.731 11.85-51.053 25.96-9.865 10.45-15.138 19.577-19.685 34.075L202.5 277.5v469l2.762 8.807c9.458 30.155 30.929 50.424 61.738 58.28 7.282 1.857 14.399 1.913 245 1.913s237.718-.056 245-1.913c17.286-4.408 30.594-12.068 42.053-24.205 9.865-10.45 15.138-19.577 19.685-34.075l2.762-8.807v-469l-2.762-8.807c-4.547-14.498-9.82-23.625-19.685-34.075-11.083-11.739-22.648-18.573-40.553-23.963l-7-2.107-236.5-.145c-130.075-.08-237.625.035-239 .255m3.5 55.464c-9.312 2.17-18.457 11.712-20.489 21.378-.721 3.431-.966 75.431-.781 229.5l.27 224.5 2.267 4.6c2.888 5.863 8.27 11.245 14.133 14.133l4.6 2.267h465l4.6-2.267c5.863-2.888 11.245-8.27 14.133-14.133l2.267-4.6v-455l-2.267-4.6c-2.888-5.863-8.27-11.245-14.133-14.133l-4.6-2.267-230.5-.155c-139.516-.094-232.079.213-234.5.777m332.931 153.634c-2.788.998-6.359 2.829-7.936 4.07-1.577 1.24-23.821 22.809-49.431 47.932-25.61 25.122-52.5 51.493-59.755 58.603l-13.191 12.927-31.067-30.394c-19.814-19.385-32.777-31.3-35.788-32.894-3.969-2.102-6.079-2.5-13.242-2.5-7.466 0-9.092.336-13.134 2.712-9.479 5.573-14.117 13.378-14.229 23.945-.125 11.859.506 12.633 48.342 59.35 29.009 28.33 43.928 42.206 47 43.714 6.483 3.181 17.722 3.155 24.244-.057 6.703-3.301 148.944-142.677 152.261-149.195 3.353-6.586 4.011-12.682 2.085-19.306-4.532-15.59-21.147-24.278-36.159-18.907" fill="undefined" fill-rule="evenodd"/></svg>